<svg viewBox="0 0 1200 800" xmlns="http://www.w3.org/2000/svg">
  <!-- Background -->
  <rect width="1200" height="800" fill="#0f1419"/>

  <!-- Title -->
  <text x="20" y="35" font-size="24" font-weight="bold" fill="#ffffff">Live Arena Cockpit</text>

  <!-- Order Book Panel (Left) -->
  <rect x="20" y="60" width="350" height="380" fill="#1a1f2e" stroke="#4a5568" stroke-width="1"/>
  <text x="30" y="85" font-size="14" font-weight="bold" fill="#22d3ee">Order Book</text>

  <!-- Bids -->
  <text x="30" y="110" font-size="11" fill="#22d3ee">BIDS</text>
  <line x1="30" y1="115" x2="340" y2="115" stroke="#22d3ee" stroke-width="0.5"/>
  <text x="40" y="135" font-size="10" fill="#86efac">100.25 | 1000</text>
  <text x="40" y="155" font-size="10" fill="#86efac">100.20 | 1500</text>
  <text x="40" y="175" font-size="10" fill="#86efac">100.15 | 800</text>
  <text x="40" y="195" font-size="10" fill="#86efac">100.10 | 2000</text>

  <!-- Asks -->
  <text x="30" y="230" font-size="11" fill="#f87171">ASKS</text>
  <line x1="30" y1="235" x2="340" y2="235" stroke="#f87171" stroke-width="0.5"/>
  <text x="40" y="255" font-size="10" fill="#f87171">100.30 | 900</text>
  <text x="40" y="275" font-size="10" fill="#f87171">100.35 | 1200</text>
  <text x="40" y="295" font-size="10" fill="#f87171">100.40 | 2500</text>
  <text x="40" y="315" font-size="10" fill="#f87171">100.45 | 1800</text>

  <!-- Stats -->
  <text x="30" y="350" font-size="10" fill="#a0aec0">Spread: 0.05 | Mid: 100.275</text>
  <text x="30" y="370" font-size="10" fill="#a0aec0">Volume: 12.9K | Last: 100.27</text>

  <!-- Price Chart (Top Right) -->
  <rect x="390" y="60" width="410" height="200" fill="#1a1f2e" stroke="#4a5568" stroke-width="1"/>
  <text x="400" y="85" font-size="14" font-weight="bold" fill="#22d3ee">Price History</text>

  <!-- Chart line -->
  <polyline points="400,180 430,175 460,170 490,165 520,168 550,172 580,170 610,165 640,160 670,162 690,168 720,175 750,180 780,175"
            fill="none" stroke="#22d3ee" stroke-width="2"/>
  <polyline points="400,190 430,188 460,185 490,182 520,184 550,188 580,186 610,182 640,178 670,180 690,185 720,191 750,195 780,190"
            fill="none" stroke="#fbbf24" stroke-width="1" stroke-dasharray="2,2"/>

  <!-- Alerts Panel (Right) -->
  <rect x="820" y="60" width="360" height="200" fill="#1a1f2e" stroke="#4a5568" stroke-width="1"/>
  <text x="830" y="85" font-size="14" font-weight="bold" fill="#f87171">Active Alerts</text>

  <rect x="825" y="95" width="350" height="25" fill="#7c2d12" opacity="0.3" stroke="#dc2626" stroke-width="0.5"/>
  <text x="835" y="115" font-size="10" fill="#fca5a5">INC-0001: Quote Stuffing Detected (0.89)</text>

  <rect x="825" y="125" width="350" height="25" fill="#7c2d12" opacity="0.3" stroke="#dc2626" stroke-width="0.5"/>
  <text x="835" y="145" font-size="10" fill="#fca5a5">INC-0002: Layering Pattern (0.76)</text>

  <text x="830" y="170" font-size="10" fill="#a0aec0">Detector Status: ACTIVE</text>

  <!-- Scenario Controls (Bottom Left) -->
  <rect x="20" y="460" width="350" height="320" fill="#1a1f2e" stroke="#4a5568" stroke-width="1"/>
  <text x="30" y="485" font-size="14" font-weight="bold" fill="#22d3ee">Scenario Controls</text>

  <text x="30" y="515" font-size="11" fill="#a0aec0">Running Scenarios:</text>
  <rect x="30" y="525" width="320" height="20" fill="#1f2937" stroke="#4b5563" stroke-width="0.5"/>
  <text x="40" y="540" font-size="10" fill="#86efac">spoofing-like-001</text>

  <text x="30" y="570" font-size="11" fill="#a0aec0">Injection Controls:</text>
  <rect x="30" y="585" width="320" height="25" fill="#1f2937" stroke="#4b5563" stroke-width="0.5"/>
  <text x="40" y="605" font-size="10" fill="#60a5fa">+ Inject | Pause | Reset</text>

  <text x="30" y="635" font-size="11" fill="#a0aec0">Agents:</text>
  <text x="40" y="655" font-size="10" fill="#a0aec0">🟢 Liquidity Provider (5)</text>
  <text x="40" y="675" font-size="10" fill="#a0aec0">🔴 Spoofing Agent (1)</text>
  <text x="40" y="695" font-size="10" fill="#a0aec0">🟡 Market Maker (2)</text>
  <text x="40" y="715" font-size="10" fill="#a0aec0">⚪ Random Traders (12)</text>

  <!-- Incident Details (Bottom Right) -->
  <rect x="390" y="280" width="790" height="500" fill="#1a1f2e" stroke="#4a5568" stroke-width="1"/>
  <text x="400" y="305" font-size="14" font-weight="bold" fill="#22d3ee">Incident Details</text>

  <text x="400" y="330" font-size="11" fill="#a0aec0">INC-0001 | Quote Stuffing | Confidence: 0.89</text>
  <text x="400" y="350" font-size="10" fill="#a0aec0">Time Window: 14:32:15 - 14:32:28</text>

  <rect x="400" y="360" width="770" height="200" fill="#0f1419" stroke="#4a5568" stroke-width="0.5"/>
  <text x="410" y="380" font-size="10" fill="#60a5fa">Evidence:</text>
  <text x="420" y="400" font-size="9" fill="#a0aec0">• High-frequency order/cancel bursts: 127 orders in 5s</text>
  <text x="420" y="420" font-size="9" fill="#a0aec0">• Orders placed away from touch, canceled within 100ms</text>
  <text x="420" y="440" font-size="9" fill="#a0aec0">• Temporary book pressure spike: 15% → 3% over 3s</text>
  <text x="420" y="460" font-size="9" fill="#a0aec0">• Order execution: 0% (all canceled)</text>
  <text x="420" y="480" font-size="9" fill="#a0aec0">• Timing: correlated with competitor price change</text>
  <text x="420" y="500" font-size="9" fill="#a0aec0">• Actor: Spoofing Agent (simulated)</text>
  <text x="420" y="520" font-size="9" fill="#a0aec0">• Recommendation: Investigate order history and messaging</text>

  <text x="410" y="555" font-size="10" fill="#60a5fa">AI Explanation:</text>
  <text x="420" y="575" font-size="9" fill="#a0aec0">The detector identified a classic spoofing signature: large</text>
  <text x="420" y="592" font-size="9" fill="#a0aec0">orders placed away from the mid, followed by immediate</text>
  <text x="420" y="609" font-size="9" fill="#a0aec0">cancellation after book pressure changed. The timing and</text>
  <text x="420" y="626" font-size="9" fill="#a0aec0">pattern suggest intent to manipulate rather than trade.</text>

  <rect x="400" y="650" width="770" height="25" fill="#1f2937" stroke="#4b5563" stroke-width="0.5"/>
  <text x="415" y="668" font-size="10" fill="#60a5fa">📄 View Event Log | 🔍 Replay | 📊 Export Report</text>
</svg>