<svg viewBox="0 0 1100 800" xmlns="http://www.w3.org/2000/svg">
  <!-- Background -->
  <rect width="1100" height="800" fill="#0f1419"/>

  <!-- Title -->
  <text x="20" y="35" font-size="24" font-weight="bold" fill="#ffffff">Experiment Lab / Nebius Batch Job</text>

  <!-- Job Configuration Panel (Left) -->
  <rect x="20" y="60" width="350" height="720" fill="#1a1f2e" stroke="#4a5568" stroke-width="1"/>
  <text x="30" y="85" font-size="14" font-weight="bold" fill="#22d3ee">Job Configuration</text>

  <!-- Job Status -->
  <rect x="30" y="100" width="330" height="60" fill="#1f2937" stroke="#4a5568" stroke-width="0.5"/>
  <text x="40" y="118" font-size="10" fill="#a0aec0">Job ID: bench-run-2026-06-02-14h</text>
  <text x="40" y="135" font-size="10" fill="#86efac">Status: RUNNING ✓</text>
  <text x="40" y="152" font-size="10" fill="#a0aec0">Duration: 4m 23s elapsed / ~10m total</text>

  <!-- Parameters -->
  <text x="30" y="180" font-size="11" font-weight="bold" fill="#22d3ee">Parameters:</text>
  <text x="40" y="200" font-size="9" fill="#a0aec0">Simulations: 500</text>
  <text x="40" y="217" font-size="9" fill="#a0aec0">Scenarios: 5 families</text>
  <text x="40" y="234" font-size="9" fill="#a0aec0">Duration Each: 30s</text>
  <text x="40" y="251" font-size="9" fill="#a0aec0">Regimes: normal, volatile</text>
  <text x="40" y="268" font-size="9" fill="#a0aec0">Detector: v2.1.0</text>

  <!-- Scenario Selection -->
  <text x="30" y="295" font-size="11" font-weight="bold" fill="#22d3ee">Scenarios:</text>
  <text x="40" y="312" font-size="9" fill="#86efac">☑ spoofing-like</text>
  <text x="40" y="329" font-size="9" fill="#86efac">☑ layering-like</text>
  <text x="40" y="346" font-size="9" fill="#86efac">☑ quote-stuffing</text>
  <text x="40" y="363" font-size="9" fill="#86efac">☑ liquidity-evaporation</text>
  <text x="40" y="380" font-size="9" fill="#a0aec0">☐ (Custom scenario)</text>

  <!-- Compute Config -->
  <text x="30" y="407" font-size="11" font-weight="bold" fill="#22d3ee">Compute:</text>
  <text x="40" y="424" font-size="9" fill="#a0aec0">Workers: 8 (GPU-enabled)</text>
  <text x="40" y="441" font-size="9" fill="#a0aec0">Concurrency: 32</text>
  <text x="40" y="458" font-size="9" fill="#a0aec0">Timeout: 60s/sim</text>
  <text x="40" y="475" font-size="9" fill="#a0aec0">Retry: 3 on failure</text>

  <!-- Controls -->
  <rect x="30" y="500" width="330" height="30" fill="#1f2937" stroke="#4a5563" stroke-width="0.5"/>
  <text x="50" y="518" font-size="10" fill="#60a5fa">⏸ Pause | ⏹ Cancel | 📊 Results</text>

  <!-- Output Destination -->
  <text x="30" y="550" font-size="11" font-weight="bold" fill="#22d3ee">Output:</text>
  <rect x="30" y="560" width="330" height="35" fill="#0f1419" stroke="#4a5568" stroke-width="0.5"/>
  <text x="40" y="575" font-size="9" fill="#60a5fa">s3://nebius-artifacts/</text>
  <text x="40" y="590" font-size="9" fill="#60a5fa">bench-run-2026-06-02-14h/</text>

  <!-- Logs Tail -->
  <text x="30" y="620" font-size="11" font-weight="bold" fill="#22d3ee">Recent Logs:</text>
  <rect x="30" y="630" width="330" height="140" fill="#0f1419" stroke="#4a5568" stroke-width="0.5" font-family="monospace"/>
  <text x="40" y="648" font-size="8" fill="#86efac">[14:34:12] Initialized 8 workers</text>
  <text x="40" y="663" font-size="8" fill="#86efac">[14:34:15] Starting batch: sim 1-50</text>
  <text x="40" y="678" font-size="8" fill="#a0aec0">[14:34:28] spoofing-like: avg F1=0.87</text>
  <text x="40" y="693" font-size="8" fill="#a0aec0">[14:35:01] quote-stuffing: avg F1=0.92</text>
  <text x="40" y="708" font-size="8" fill="#a0aec0">[14:35:35] Completed 125/500 sims</text>
  <text x="40" y="723" font-size="8" fill="#fbbf24">[14:35:47] Worker 3: timeout, retrying</text>
  <text x="40" y="738" font-size="8" fill="#86efac">[14:36:15] Completed 250/500 sims</text>
  <text x="40" y="753" font-size="8" fill="#86efac">[14:36:42] Uploading intermediate results</text>

  <!-- Right Panel: Results Streaming -->
  <rect x="390" y="60" width="690" height="720" fill="#1a1f2e" stroke="#4a5568" stroke-width="1"/>
  <text x="400" y="85" font-size="14" font-weight="bold" fill="#22d3ee">Live Results</text>

  <!-- Progress Bar -->
  <rect x="400" y="100" width="670" height="25" fill="#1f2937" stroke="#4a5568" stroke-width="0.5"/>
  <rect x="405" y="105" width="335" height="15" fill="#3b82f6"/>
  <text x="750" y="117" font-size="11" fill="#a0aec0">50% (250/500)</text>

  <!-- Metrics Table -->
  <rect x="400" y="140" width="670" height="280" fill="#0f1419" stroke="#4a5568" stroke-width="0.5"/>
  <text x="410" y="160" font-size="12" font-weight="bold" fill="#22d3ee">Per-Scenario Aggregate Metrics</text>

  <!-- Table Header -->
  <rect x="410" y="172" width="650" height="20" fill="#1f2937" stroke="#4a5568" stroke-width="0.5"/>
  <text x="420" y="186" font-size="9" font-weight="bold" fill="#60a5fa">Scenario</text>
  <text x="520" y="186" font-size="9" font-weight="bold" fill="#60a5fa">Sims</text>
  <text x="580" y="186" font-size="9" font-weight="bold" fill="#60a5fa">Precision</text>
  <text x="680" y="186" font-size="9" font-weight="bold" fill="#60a5fa">Recall</text>
  <text x="760" y="186" font-size="9" font-weight="bold" fill="#60a5fa">F1</text>
  <text x="840" y="186" font-size="9" font-weight="bold" fill="#60a5fa">Latency (ms)</text>

  <!-- Data Rows -->
  <rect x="410" y="198" width="650" height="18" fill="#1f2937" opacity="0.5"/>
  <text x="420" y="210" font-size="9" fill="#a0aec0">spoofing-like</text>
  <text x="520" y="210" font-size="9" fill="#a0aec0">63</text>
  <text x="580" y="210" font-size="9" fill="#86efac">0.88</text>
  <text x="680" y="210" font-size="9" fill="#86efac">0.85</text>
  <text x="760" y="210" font-size="9" fill="#fbbf24">0.87</text>
  <text x="840" y="210" font-size="9" fill="#a0aec0">42</text>

  <rect x="410" y="220" width="650" height="18" fill="#1f2937" opacity="0.5"/>
  <text x="420" y="232" font-size="9" fill="#a0aec0">layering-like</text>
  <text x="520" y="232" font-size="9" fill="#a0aec0">58</text>
  <text x="580" y="232" font-size="9" fill="#86efac">0.91</text>
  <text x="680" y="232" font-size="9" fill="#86efac">0.88</text>
  <text x="760" y="232" font-size="9" fill="#fbbf24">0.89</text>
  <text x="840" y="232" font-size="9" fill="#a0aec0">39</text>

  <rect x="410" y="242" width="650" height="18" fill="#1f2937" opacity="0.5"/>
  <text x="420" y="254" font-size="9" fill="#a0aec0">quote-stuffing</text>
  <text x="520" y="254" font-size="9" fill="#a0aec0">67</text>
  <text x="580" y="254" font-size="9" fill="#86efac">0.92</text>
  <text x="680" y="254" font-size="9" fill="#86efac">0.93</text>
  <text x="760" y="254" font-size="9" fill="#fbbf24">0.92</text>
  <text x="840" y="254" font-size="9" fill="#a0aec0">48</text>

  <rect x="410" y="264" width="650" height="18" fill="#1f2937" opacity="0.5"/>
  <text x="420" y="276" font-size="9" fill="#a0aec0">liquidity-evaporation</text>
  <text x="520" y="276" font-size="9" fill="#a0aec0">62</text>
  <text x="580" y="276" font-size="9" fill="#86efac">0.84</text>
  <text x="680" y="276" font-size="9" fill="#86efac">0.82</text>
  <text x="760" y="276" font-size="9" fill="#fbbf24">0.83</text>
  <text x="840" y="276" font-size="9" fill="#a0aec0">51</text>

  <rect x="410" y="286" width="650" height="18" fill="#0f1419" stroke="#4a5568" stroke-width="0.5"/>
  <text x="420" y="298" font-size="9" font-weight="bold" fill="#fbbf24">AVERAGE (all)</text>
  <text x="520" y="298" font-size="9" font-weight="bold" fill="#fbbf24">250</text>
  <text x="580" y="298" font-size="9" font-weight="bold" fill="#fbbf24">0.89</text>
  <text x="680" y="298" font-size="9" font-weight="bold" fill="#fbbf24">0.87</text>
  <text x="760" y="298" font-size="9" font-weight="bold" fill="#fbbf24">0.88</text>
  <text x="840" y="298" font-size="9" font-weight="bold" fill="#fbbf24">45</text>

  <text x="410" y="325" font-size="9" fill="#a0aec0">... processing remaining 250 simulations ...</text>

  <!-- Charts -->
  <rect x="400" y="440" width="330" height="220" fill="#0f1419" stroke="#4a5568" stroke-width="0.5"/>
  <text x="410" y="460" font-size="11" font-weight="bold" fill="#22d3ee">F1 Distribution</text>
  <polyline points="420,550 450,530 480,540 510,535 540,545 570,540 580,545"
            fill="none" stroke="#22d3ee" stroke-width="2"/>

  <rect x="750" y="440" width="330" height="220" fill="#0f1419" stroke="#4a5568" stroke-width="0.5"/>
  <text x="760" y="460" font-size="11" font-weight="bold" fill="#22d3ee">Latency Percentiles</text>
  <text x="770" y="480" font-size="9" fill="#a0aec0">p50: 43ms</text>
  <text x="770" y="497" font-size="9" fill="#a0aec0">p95: 61ms</text>
  <text x="770" y="514" font-size="9" fill="#a0aec0">p99: 78ms</text>
  <text x="770" y="531" font-size="9" fill="#a0aec0">max: 142ms</text>

  <!-- Download Section -->
  <rect x="400" y="680" width="670" height="40" fill="#1f2937" stroke="#4a5568" stroke-width="0.5"/>
  <text x="415" y="705" font-size="11" fill="#60a5fa">📥 Download Artifact | 💾 Save to S3 | 📊 Generate PDF Report | 🔔 Notify on Completion</text>
</svg>