<svg viewBox="0 0 900 700" xmlns="http://www.w3.org/2000/svg">
  <!-- Background -->
  <rect width="900" height="700" fill="#0f1419"/>

  <!-- Title -->
  <text x="20" y="35" font-size="22" font-weight="bold" fill="#ffffff">Incident Replay Drawer</text>

  <!-- Incident Header -->
  <rect x="20" y="50" width="860" height="80" fill="#1a1f2e" stroke="#4a5568" stroke-width="1"/>
  <text x="30" y="75" font-size="16" font-weight="bold" fill="#22d3ee">INC-0001: Quote Stuffing Attack</text>
  <text x="30" y="95" font-size="12" fill="#a0aec0">Time: 2026-06-02 14:32:15 UTC | Duration: 13s | Confidence: 0.89</text>
  <text x="30" y="115" font-size="12" fill="#a0aec0">Scenario Type: spoofing-like | Severity: Medium | Status: Confirmed</text>

  <!-- Timeline Control -->
  <rect x="20" y="150" width="860" height="80" fill="#1a1f2e" stroke="#4a5568" stroke-width="1"/>
  <text x="30" y="170" font-size="12" font-weight="bold" fill="#22d3ee">Replay Timeline</text>

  <!-- Timeline bar -->
  <rect x="30" y="185" width="840" height="6" fill="#1f2937" stroke="#4a5568" stroke-width="0.5"/>
  <rect x="30" y="185" width="315" height="6" fill="#f97316"/>
  <circle cx="345" cy="188" r="5" fill="#fbbf24"/>

  <text x="30" y="210" font-size="10" fill="#a0aec0">14:32:15</text>
  <text x="400" y="210" font-size="10" fill="#fbbf24">▶ 14:32:22 (7s)</text>
  <text x="820" y="210" font-size="10" fill="#a0aec0" text-anchor="end">14:32:28</text>

  <!-- Video Controls -->
  <rect x="30" y="225" width="840" height="30" fill="#1f2937" stroke="#4a5568" stroke-width="0.5"/>
  <text x="45" y="243" font-size="12" fill="#60a5fa">⏮ | ⏪ | ⏸ | ⏩ | ⏭ | Speed: 1x</text>

  <!-- Evidence Timeline -->
  <rect x="20" y="250" width="860" height="200" fill="#1a1f2e" stroke="#4a5568" stroke-width="1"/>
  <text x="30" y="270" font-size="12" font-weight="bold" fill="#22d3ee">Evidence Timeline</text>

  <!-- Timeline events -->
  <rect x="30" y="285" width="840" height="25" fill="#7c2d12" opacity="0.3" stroke="#dc2626" stroke-width="1"/>
  <text x="40" y="302" font-size="10" fill="#fca5a5">14:32:15 - Start: Spoofing Agent places 127 orders in 2s</text>

  <rect x="30" y="315" width="840" height="25" fill="#7c2d12" opacity="0.3" stroke="#dc2626" stroke-width="1"/>
  <text x="40" y="332" font-size="10" fill="#fca5a5">14:32:17 - Pressure spike: Bid side book depth increases 450%</text>

  <rect x="30" y="345" width="840" height="25" fill="#7c2d12" opacity="0.3" stroke="#dc2626" stroke-width="1"/>
  <text x="40" y="362" font-size="10" fill="#fca5a5">14:32:20 - Competitor price movement detected: +0.08 upward</text>

  <rect x="30" y="375" width="840" height="25" fill="#7c2d12" opacity="0.3" stroke="#dc2626" stroke-width="1"/>
  <text x="40" y="392" font-size="10" fill="#fca5a5">14:32:23 - Cancellation cascade: 126/127 orders canceled in 300ms</text>

  <!-- Metrics Panel -->
  <rect x="20" y="465" width="860" height="190" fill="#1a1f2e" stroke="#4a5568" stroke-width="1"/>
  <text x="30" y="485" font-size="12" font-weight="bold" fill="#22d3ee">Detector Evidence Metrics</text>

  <rect x="30" y="495" width="410" height="150" fill="#0f1419" stroke="#4a5568" stroke-width="0.5"/>
  <text x="40" y="515" font-size="10" fill="#60a5fa">Order Statistics:</text>
  <text x="50" y="535" font-size="9" fill="#a0aec0">• Total Orders: 127</text>
  <text x="50" y="552" font-size="9" fill="#a0aec0">• Canceled: 126 (99.2%)</text>
  <text x="50" y="569" font-size="9" fill="#a0aec0">• Executed: 1 (0.8%)</text>
  <text x="50" y="586" font-size="9" fill="#a0aec0">• Avg Lifetime: 87ms</text>
  <text x="50" y="603" font-size="9" fill="#a0aec0">• Order Rate: 63.5/sec</text>
  <text x="50" y="620" font-size="9" fill="#a0aec0">• Away-Touch Rate: 94%</text>

  <rect x="450" y="495" width="430" height="150" fill="#0f1419" stroke="#4a5568" stroke-width="0.5"/>
  <text x="460" y="515" font-size="10" fill="#60a5fa">Book Dynamics:</text>
  <text x="470" y="535" font-size="9" fill="#a0aec0">• Max Depth Increase: 450%</text>
  <text x="470" y="552" font-size="9" fill="#a0aec0">• Pressure Duration: 5.2s</text>
  <text x="470" y="569" font-size="9" fill="#a0aec0">• Spread Impact: 0 bps (no execution)</text>
  <text x="470" y="586" font-size="9" fill="#a0aec0">• Timing Anomaly: Yes</text>
  <text x="470" y="603" font-size="9" fill="#a0aec0">• Recovery Time: 0.8s</text>
  <text x="470" y="620" font-size="9" fill="#a0aec0">• Confidence Score: 0.89</text>

  <!-- Controls -->
  <rect x="20" y="670" width="860" height="30" fill="#1f2937" stroke="#4a5568" stroke-width="0.5"/>
  <text x="35" y="688" font-size="11" fill="#60a5fa">💾 Save Report | 🔍 Full Evidence | 📊 Export Data | ❌ Close</text>
</svg>