<svg xmlns="http://www.w3.org/2000/svg" width="1600" height="720" viewBox="0 0 1600 720">
  <rect width="1600" height="720" fill="#07111b"/>
  <rect x="34" y="34" width="1532" height="652" rx="28" fill="#0a121d" stroke="#23445f" stroke-width="2"/>

  <text x="82" y="92" fill="#f8fafc" font-family="Inter, Arial, sans-serif" font-size="34" font-weight="700">AI Market Abuse Detection Arena Architecture</text>
  <text x="82" y="132" fill="#a7c7d8" font-family="Inter, Arial, sans-serif" font-size="20">Four execution areas: browser front end, FastAPI back end, agent runner workspace, and Nebius Serverless Cloud.</text>

  <g font-family="Inter, Arial, sans-serif">
    <rect x="82" y="178" width="300" height="330" rx="18" fill="#0e1b2a" stroke="#38bdf8" stroke-width="3"/>
    <text x="112" y="226" fill="#67e8f9" font-size="18" font-weight="700">FRONT</text>
    <text x="112" y="268" fill="#f8fafc" font-size="30" font-weight="700">React UI</text>
    <text x="112" y="306" fill="#cfefff" font-size="18">Arena</text>
    <text x="112" y="336" fill="#cfefff" font-size="18">Scenario Generator</text>
    <text x="112" y="366" fill="#cfefff" font-size="18">Detection</text>
    <text x="112" y="396" fill="#cfefff" font-size="18">Experiments / About</text>
    <rect x="112" y="428" width="240" height="50" rx="10" fill="#12263a" stroke="#1d4d68"/>
    <text x="132" y="457" fill="#bae6fd" font-size="16" font-weight="700">No Nebius secrets</text>

    <rect x="455" y="178" width="300" height="330" rx="18" fill="#0f1f2d" stroke="#22d3ee" stroke-width="3"/>
    <text x="485" y="226" fill="#67e8f9" font-size="18" font-weight="700">BACK</text>
    <text x="485" y="268" fill="#f8fafc" font-size="30" font-weight="700">FastAPI Backend</text>
    <text x="485" y="306" fill="#cfefff" font-size="18">REST control plane</text>
    <text x="485" y="336" fill="#cfefff" font-size="18">WebSocket stream</text>
    <text x="485" y="366" fill="#cfefff" font-size="18">Smart Detection</text>
    <text x="485" y="396" fill="#cfefff" font-size="18">AI Investigator adapter</text>
    <rect x="485" y="428" width="240" height="50" rx="10" fill="#12263a" stroke="#1d4d68"/>
    <text x="505" y="457" fill="#bae6fd" font-size="16" font-weight="700">Routes and persists work</text>

    <rect x="828" y="178" width="300" height="330" rx="18" fill="#151a25" stroke="#fbbf24" stroke-width="3"/>
    <text x="858" y="226" fill="#fde68a" font-size="16" font-weight="700">AGENT RUNNERS WORKSPACE</text>
    <text x="858" y="268" fill="#f8fafc" font-size="30" font-weight="700">Market Agents</text>
    <text x="858" y="306" fill="#fde68a" font-size="18">Normal liquidity agents</text>
    <text x="858" y="336" fill="#fde68a" font-size="18">Red-team attacker agents</text>
    <text x="858" y="366" fill="#fde68a" font-size="18">Exchange/order book loop</text>
    <text x="858" y="396" fill="#fde68a" font-size="18">Detector + replay workers</text>
    <rect x="858" y="428" width="240" height="50" rx="10" fill="#28210f" stroke="#7a5b12"/>
    <text x="878" y="457" fill="#fde68a" font-size="16" font-weight="700">Agents run here</text>

    <rect x="1201" y="178" width="300" height="330" rx="18" fill="#0c2118" stroke="#22c55e" stroke-width="3"/>
    <text x="1231" y="226" fill="#86efac" font-size="16" font-weight="700">NEBIUS SERVERLESS CLOUD</text>
    <text x="1231" y="268" fill="#f8fafc" font-size="30" font-weight="700">Nebius AI</text>
    <text x="1231" y="306" fill="#bbf7d0" font-size="18">LLM model selection</text>
    <text x="1231" y="336" fill="#bbf7d0" font-size="18">Inference endpoints</text>
    <text x="1231" y="366" fill="#bbf7d0" font-size="18">Managed Experiment jobs</text>
    <text x="1231" y="396" fill="#bbf7d0" font-size="18">GPU / datasets / artifacts</text>
    <rect x="1231" y="428" width="240" height="50" rx="10" fill="#0f2b1e" stroke="#1d6d3f"/>
    <text x="1251" y="457" fill="#bbf7d0" font-size="16" font-weight="700">Scales heavy work</text>

    <path d="M392 344 H443" stroke="#67e8f9" stroke-width="5" stroke-linecap="round"/>
    <path d="M431 330 L455 344 L431 358 Z" fill="#67e8f9"/>

    <path d="M765 344 H816" stroke="#facc15" stroke-width="5" stroke-linecap="round"/>
    <path d="M804 330 L828 344 L804 358 Z" fill="#facc15"/>

    <path d="M1138 344 H1189" stroke="#86efac" stroke-width="5" stroke-linecap="round"/>
    <path d="M1177 330 L1201 344 L1177 358 Z" fill="#86efac"/>
  </g>

  <rect x="82" y="552" width="1419" height="82" rx="14" fill="#0f172a" stroke="#1b344d" stroke-width="2"/>
  <text x="112" y="586" fill="#d8edf7" font-family="Inter, Arial, sans-serif" font-size="19" font-weight="700">Runtime flow</text>
  <text x="112" y="617" fill="#cbe4ef" font-family="Inter, Arial, sans-serif" font-size="18">Scenario Generator -> FastAPI -> Agent Runners Workspace -> Smart Detection -> evidence -> AI Investigator / Nebius AI -> Managed Experiment reports.</text>
</svg>
